<mxfile host="app.diagrams.net" modified="2024-07-29T02:46:51.999Z" agent="Mozilla/5.0 (Windows NT 10.0; Win64; x64) AppleWebKit/537.36 (KHTML, like Gecko) Chrome/126.0.0.0 Safari/537.36" etag="4Q-82C_u-2Yy49MK9T1G" version="23.1.5" type="github">
  <diagram name="페이지-1" id="rk7jf6LGWkGsUi4to5Dd">
    <mxGraphModel dx="1434" dy="746" grid="0" gridSize="10" guides="1" tooltips="1" connect="1" arrows="1" fold="1" page="1" pageScale="1" pageWidth="827" pageHeight="1169" math="0" shadow="0">
      <root>
        <mxCell id="0" />
        <mxCell id="1" parent="0" />
        <mxCell id="ihf8nai4vk2Wt9ODxZiB-1" value="" style="shape=image;verticalLabelPosition=bottom;labelBackgroundColor=default;verticalAlign=top;aspect=fixed;imageAspect=0;image=data:image/png,iVBORw0KGgoAAAANSUhEUgAAATYAAAA4CAIAAAD4o0M6AAAFhklEQVR4Ae1dMW4rIRDdVP8wOV7KjZQzpPctrJQ5QlrLTS7gJqVLvliWYWAGexLiCC/PihQ8HmB4vLcD7Eo7OXyAABDoGIGp49gQGhAAAg4SBQmAQNcIQKJdTw+CAwKQKDgABLpGABLtenoQHBCARMEBINA1ApBo19OD4IAAJAoOKAjsj+7x1T3MbsLf7RF4mD3a+6MyEc7hposOy9DW/dH9e1nE+QyJ/gkCC87/XnSVIosOrUZ18I+vf8LL22enu1sCPL4qEwKJKqAMbvLrW+TPv7+CPPudhfxAohKT0S13l3y2FLAkHyQqMRndsiXG391YJPkgUYnJ6Ja7o/WWApbkg0QlJqNbtsT4uxuLJB8kKjEZ3XJ3tN5SwJJ8kKjEZHTLlhh/d2OR5INEJSajW+6O1lsKWJIPEpWYjG5pYvyb+zq7p9ntTu7wYXoE4uDcznYTUnoeanO1xMAHYvfktWrlp0/39Wka3RQBqTVV2OWAIFGJyeiWgjS1rwXpV5lFRkqJvp8jsKeM3JeEZ/BU5B1jqEWe7DbPg3Pvb1nMpUQ/4tDoP0Vu64JCogaoAIkSFCisCBBd7IUks8jIQqJen5G1u1MqT7NLdZdcenAp/fJa0lO1+JhjDDz+4oKSJlvkW14rlIsIp9mVEs1XAdnYtWBkF2RJgcUSJBqRwP+IANHFXkgkjowsaZqvZnleSnVnN31k6vViYxUzz6hnYxaVdY2je/r0uIRe0kLAVRe63v+0XCYins5wFaBgqBIVIFGCAoUVAaKLvZAEoEl0ZS1LNbtToniqu+xgiz3e+zklVe4ZYrPnRlnXNLrlGnE4uUJmtSwa9JwNIQJi6g7P6EKFFgSMZCrksaP9mDgukoTmFi4eLsgQhl8Vs4+SM4PyrymhiJY1We4z0/CDPpdDL55LawtdH+oy9pBs11CvBZa6WwbCAwtlZFGJyeiWgjS1r1xayScyki90uSCDJ7fwdlSJ0skw90w92iSa/GOEycLSOxkLTXr7cg0K50Y8fv/TImbabJOzV6mtO+pXkg8SlZiMbiG6XC7ogomMLCSa0Te/JcPb4Qvg0Pv7OWW55BkkYZiond1TE+plBOhXfsRFxrUQASntle7kmCBRicnoFiOZkmA42yIjuUSLU59wEku3MbJ25HERO2vJPHmntyzXVsjZhvNCABEQI6qSfJCoxGR0i5FMkrt+RRoZmUl0SZuUSK/edCH2F+veQqJhLarPFhN22Drqbq48BzKOvVzokkRF0qZVurFlGSckKjEZ3WIkk+5Wkeg0u3THIt4gDS0Uwgs5NsxBwW/peTkG/VeSk22jmMLOeUHXEepF2b6GUefjJX+1kHfiv0GiEpPRLSp1rMa6RGstWIUnHnKoNUiZvOpAKo3RXvC0h1csHNY2l7xaPYimSGJBkg8SlZiMbrnA1+s/RdLrfI1E5O3YNWD1jDHwXvSywdPa6fLIET3kQN35JIwsOrqkfnv8RK+WwmYkWlvoFg8zrFhhL/rbbER7CgItykTdRgTkfGChKzEZ3dJIMlRvQUCSDxKVmIxuaWEY6jYiIMkHiUpMRrc0kgzVWxCQ5INEJSajW1oYhrqNCEjyQaISk9EtjSRD9RYEJPkgUYnJ6JYWhqFuIwKSfJCoxGR0C1671CizH1bHa5dGV555/Hh54Q81pj079a2m8PJCM0nHdsQrgL+lq19wxiuAx1bcT0a/P/pXu/sVL/5uj8DD7NHeH/WZwl5UxwVWINAJApBoJxOBMICAjgAkquMCKxDoBAFItJOJQBhAQEcAEtVxgRUIdIIAJNrJRCAMIKAjAInquMAKBDpBABLtZCIQBhDQEYBEdVxgBQKdIACJdjIRCAMI6AhAojousAKBThCARDuZCIQBBHQE/gMSFyXtgMiY9QAAAABJRU5ErkJggg==;" vertex="1" parent="1">
          <mxGeometry x="170" y="240" width="310" height="56" as="geometry" />
        </mxCell>
        <mxCell id="ihf8nai4vk2Wt9ODxZiB-2" value="레이어 검색" style="rounded=0;whiteSpace=wrap;html=1;fontSize=15;fillColor=#3333FF;strokeColor=#6c8ebf;fontColor=#FFFFFF;" vertex="1" parent="1">
          <mxGeometry x="208" y="248" width="129" height="34" as="geometry" />
        </mxCell>
        <mxCell id="ihf8nai4vk2Wt9ODxZiB-3" value="" style="rounded=0;whiteSpace=wrap;html=1;" vertex="1" parent="1">
          <mxGeometry x="208" y="326" width="269" height="252" as="geometry" />
        </mxCell>
        <mxCell id="ihf8nai4vk2Wt9ODxZiB-4" value="" style="rounded=0;whiteSpace=wrap;html=1;" vertex="1" parent="1">
          <mxGeometry x="208" y="326" width="269" height="32" as="geometry" />
        </mxCell>
        <mxCell id="ihf8nai4vk2Wt9ODxZiB-5" value="X" style="rounded=0;whiteSpace=wrap;html=1;" vertex="1" parent="1">
          <mxGeometry x="450" y="331.5" width="20" height="21" as="geometry" />
        </mxCell>
        <mxCell id="ihf8nai4vk2Wt9ODxZiB-6" value="&amp;nbsp;공유" style="rounded=1;whiteSpace=wrap;html=1;align=left;" vertex="1" parent="1">
          <mxGeometry x="222.5" y="368" width="240" height="31" as="geometry" />
        </mxCell>
        <mxCell id="ihf8nai4vk2Wt9ODxZiB-7" value="공유재산(일반)" style="text;html=1;align=center;verticalAlign=middle;whiteSpace=wrap;rounded=0;" vertex="1" parent="1">
          <mxGeometry x="222.5" y="409" width="97.5" height="30" as="geometry" />
        </mxCell>
        <mxCell id="ihf8nai4vk2Wt9ODxZiB-8" value="공유재산(행정)" style="text;html=1;align=center;verticalAlign=middle;whiteSpace=wrap;rounded=0;" vertex="1" parent="1">
          <mxGeometry x="222.5" y="437" width="97.5" height="30" as="geometry" />
        </mxCell>
        <mxCell id="ihf8nai4vk2Wt9ODxZiB-9" value="공유재산(대부사용중)" style="text;html=1;align=center;verticalAlign=middle;whiteSpace=wrap;rounded=0;" vertex="1" parent="1">
          <mxGeometry x="228.75" y="467" width="122.25" height="30" as="geometry" />
        </mxCell>
        <mxCell id="ihf8nai4vk2Wt9ODxZiB-10" value="" style="rounded=0;whiteSpace=wrap;html=1;" vertex="1" parent="1">
          <mxGeometry x="216" y="636" width="269" height="252" as="geometry" />
        </mxCell>
        <mxCell id="ihf8nai4vk2Wt9ODxZiB-11" value="" style="rounded=0;whiteSpace=wrap;html=1;" vertex="1" parent="1">
          <mxGeometry x="216" y="636" width="269" height="32" as="geometry" />
        </mxCell>
        <mxCell id="ihf8nai4vk2Wt9ODxZiB-12" value="X" style="rounded=0;whiteSpace=wrap;html=1;" vertex="1" parent="1">
          <mxGeometry x="458" y="641.5" width="20" height="21" as="geometry" />
        </mxCell>
        <mxCell id="ihf8nai4vk2Wt9ODxZiB-14" value="SSO 로그인 오류 안내" style="text;html=1;align=center;verticalAlign=middle;whiteSpace=wrap;rounded=0;" vertex="1" parent="1">
          <mxGeometry x="275" y="684" width="138.25" height="30" as="geometry" />
        </mxCell>
        <mxCell id="ihf8nai4vk2Wt9ODxZiB-15" value="오류 조치 방안&amp;nbsp;" style="text;html=1;align=center;verticalAlign=middle;whiteSpace=wrap;rounded=0;" vertex="1" parent="1">
          <mxGeometry x="301.76" y="765" width="97.5" height="30" as="geometry" />
        </mxCell>
        <mxCell id="ihf8nai4vk2Wt9ODxZiB-16" value="유지보수팀 안내 번호" style="text;html=1;align=center;verticalAlign=middle;whiteSpace=wrap;rounded=0;" vertex="1" parent="1">
          <mxGeometry x="289.38" y="853" width="122.25" height="30" as="geometry" />
        </mxCell>
        <mxCell id="ihf8nai4vk2Wt9ODxZiB-18" value="" style="rounded=0;whiteSpace=wrap;html=1;" vertex="1" parent="1">
          <mxGeometry x="195.01" y="944" width="431.99" height="281" as="geometry" />
        </mxCell>
        <mxCell id="ihf8nai4vk2Wt9ODxZiB-24" value="" style="shape=table;startSize=0;container=1;collapsible=0;childLayout=tableLayout;fontSize=16;" vertex="1" parent="1">
          <mxGeometry x="746" y="993" width="284" height="247" as="geometry" />
        </mxCell>
        <mxCell id="ihf8nai4vk2Wt9ODxZiB-25" value="" style="shape=tableRow;horizontal=0;startSize=0;swimlaneHead=0;swimlaneBody=0;strokeColor=inherit;top=0;left=0;bottom=0;right=0;collapsible=0;dropTarget=0;fillColor=none;points=[[0,0.5],[1,0.5]];portConstraint=eastwest;fontSize=16;" vertex="1" parent="ihf8nai4vk2Wt9ODxZiB-24">
          <mxGeometry width="284" height="82" as="geometry" />
        </mxCell>
        <mxCell id="ihf8nai4vk2Wt9ODxZiB-26" value="&lt;font style=&quot;font-size: 12px;&quot;&gt;&lt;span style=&quot;&quot;&gt;KRAS 연계 다운로드&lt;/span&gt;&lt;br&gt;&lt;/font&gt;" style="shape=partialRectangle;html=1;whiteSpace=wrap;connectable=0;strokeColor=inherit;overflow=hidden;fillColor=none;top=0;left=0;bottom=0;right=0;pointerEvents=1;fontSize=16;labelBackgroundColor=#FFFFFF;" vertex="1" parent="ihf8nai4vk2Wt9ODxZiB-25">
          <mxGeometry width="95" height="82" as="geometry">
            <mxRectangle width="95" height="82" as="alternateBounds" />
          </mxGeometry>
        </mxCell>
        <mxCell id="ihf8nai4vk2Wt9ODxZiB-27" value="&lt;font style=&quot;font-size: 12px;&quot;&gt;KRAS 연속지적도 갱신 작업&lt;br&gt;&lt;/font&gt;" style="shape=partialRectangle;html=1;whiteSpace=wrap;connectable=0;strokeColor=inherit;overflow=hidden;fillColor=none;top=0;left=0;bottom=0;right=0;pointerEvents=1;fontSize=16;" vertex="1" parent="ihf8nai4vk2Wt9ODxZiB-25">
          <mxGeometry x="95" width="94" height="82" as="geometry">
            <mxRectangle width="94" height="82" as="alternateBounds" />
          </mxGeometry>
        </mxCell>
        <mxCell id="ihf8nai4vk2Wt9ODxZiB-28" value="&lt;font style=&quot;font-size: 12px;&quot;&gt;KRAS 용도지역지구도 갱신 작업&lt;/font&gt;" style="shape=partialRectangle;html=1;whiteSpace=wrap;connectable=0;strokeColor=inherit;overflow=hidden;fillColor=none;top=0;left=0;bottom=0;right=0;pointerEvents=1;fontSize=16;" vertex="1" parent="ihf8nai4vk2Wt9ODxZiB-25">
          <mxGeometry x="189" width="95" height="82" as="geometry">
            <mxRectangle width="95" height="82" as="alternateBounds" />
          </mxGeometry>
        </mxCell>
        <mxCell id="ihf8nai4vk2Wt9ODxZiB-29" value="" style="shape=tableRow;horizontal=0;startSize=0;swimlaneHead=0;swimlaneBody=0;strokeColor=inherit;top=0;left=0;bottom=0;right=0;collapsible=0;dropTarget=0;fillColor=none;points=[[0,0.5],[1,0.5]];portConstraint=eastwest;fontSize=16;" vertex="1" parent="ihf8nai4vk2Wt9ODxZiB-24">
          <mxGeometry y="82" width="284" height="83" as="geometry" />
        </mxCell>
        <mxCell id="ihf8nai4vk2Wt9ODxZiB-30" value="&lt;br&gt;&lt;span style=&quot;color: rgb(0, 0, 0); font-family: Helvetica; font-size: 12px; font-style: normal; font-variant-ligatures: normal; font-variant-caps: normal; font-weight: 400; letter-spacing: normal; orphans: 2; text-align: center; text-indent: 0px; text-transform: none; widows: 2; word-spacing: 0px; -webkit-text-stroke-width: 0px; background-color: rgb(251, 251, 251); text-decoration-thickness: initial; text-decoration-style: initial; text-decoration-color: initial; float: none; display: inline !important;&quot;&gt;공유재산 DB 연동&lt;/span&gt;&lt;div&gt;&lt;br/&gt;&lt;/div&gt;" style="shape=partialRectangle;html=1;whiteSpace=wrap;connectable=0;strokeColor=inherit;overflow=hidden;fillColor=none;top=0;left=0;bottom=0;right=0;pointerEvents=1;fontSize=16;" vertex="1" parent="ihf8nai4vk2Wt9ODxZiB-29">
          <mxGeometry width="95" height="83" as="geometry">
            <mxRectangle width="95" height="83" as="alternateBounds" />
          </mxGeometry>
        </mxCell>
        <mxCell id="ihf8nai4vk2Wt9ODxZiB-31" value="&lt;font style=&quot;font-size: 12px;&quot;&gt;조직도 DB 연동&lt;/font&gt;" style="shape=partialRectangle;html=1;whiteSpace=wrap;connectable=0;strokeColor=inherit;overflow=hidden;fillColor=none;top=0;left=0;bottom=0;right=0;pointerEvents=1;fontSize=16;" vertex="1" parent="ihf8nai4vk2Wt9ODxZiB-29">
          <mxGeometry x="95" width="94" height="83" as="geometry">
            <mxRectangle width="94" height="83" as="alternateBounds" />
          </mxGeometry>
        </mxCell>
        <mxCell id="ihf8nai4vk2Wt9ODxZiB-32" value="&lt;font style=&quot;font-size: 12px;&quot;&gt;차세대 세움터 파일 연계&lt;/font&gt;" style="shape=partialRectangle;html=1;whiteSpace=wrap;connectable=0;strokeColor=inherit;overflow=hidden;fillColor=none;top=0;left=0;bottom=0;right=0;pointerEvents=1;fontSize=16;" vertex="1" parent="ihf8nai4vk2Wt9ODxZiB-29">
          <mxGeometry x="189" width="95" height="83" as="geometry">
            <mxRectangle width="95" height="83" as="alternateBounds" />
          </mxGeometry>
        </mxCell>
        <mxCell id="ihf8nai4vk2Wt9ODxZiB-33" value="" style="shape=tableRow;horizontal=0;startSize=0;swimlaneHead=0;swimlaneBody=0;strokeColor=inherit;top=0;left=0;bottom=0;right=0;collapsible=0;dropTarget=0;fillColor=none;points=[[0,0.5],[1,0.5]];portConstraint=eastwest;fontSize=16;" vertex="1" parent="ihf8nai4vk2Wt9ODxZiB-24">
          <mxGeometry y="165" width="284" height="82" as="geometry" />
        </mxCell>
        <mxCell id="ihf8nai4vk2Wt9ODxZiB-34" value="&lt;font style=&quot;font-size: 12px;&quot;&gt;새올 DB 연동&lt;/font&gt;" style="shape=partialRectangle;html=1;whiteSpace=wrap;connectable=0;strokeColor=inherit;overflow=hidden;fillColor=none;top=0;left=0;bottom=0;right=0;pointerEvents=1;fontSize=16;" vertex="1" parent="ihf8nai4vk2Wt9ODxZiB-33">
          <mxGeometry width="95" height="82" as="geometry">
            <mxRectangle width="95" height="82" as="alternateBounds" />
          </mxGeometry>
        </mxCell>
        <mxCell id="ihf8nai4vk2Wt9ODxZiB-35" value="&lt;font style=&quot;font-size: 12px;&quot;&gt;e-호조 DB 연동&lt;/font&gt;" style="shape=partialRectangle;html=1;whiteSpace=wrap;connectable=0;strokeColor=inherit;overflow=hidden;fillColor=none;top=0;left=0;bottom=0;right=0;pointerEvents=1;fontSize=16;" vertex="1" parent="ihf8nai4vk2Wt9ODxZiB-33">
          <mxGeometry x="95" width="94" height="82" as="geometry">
            <mxRectangle width="94" height="82" as="alternateBounds" />
          </mxGeometry>
        </mxCell>
        <mxCell id="ihf8nai4vk2Wt9ODxZiB-36" value="&lt;font style=&quot;font-size: 12px;&quot;&gt;KAIS FTP 연계&lt;/font&gt;" style="shape=partialRectangle;html=1;whiteSpace=wrap;connectable=0;strokeColor=inherit;overflow=hidden;fillColor=none;top=0;left=0;bottom=0;right=0;pointerEvents=1;fontSize=16;" vertex="1" parent="ihf8nai4vk2Wt9ODxZiB-33">
          <mxGeometry x="189" width="95" height="82" as="geometry">
            <mxRectangle width="95" height="82" as="alternateBounds" />
          </mxGeometry>
        </mxCell>
        <mxCell id="ihf8nai4vk2Wt9ODxZiB-37" value="&lt;span style=&quot;font-family: Helvetica; font-size: 12px; font-style: normal; font-variant-ligatures: normal; font-variant-caps: normal; font-weight: 400; letter-spacing: normal; orphans: 2; text-align: center; text-indent: 0px; text-transform: none; widows: 2; word-spacing: 0px; -webkit-text-stroke-width: 0px; text-decoration-thickness: initial; text-decoration-style: initial; text-decoration-color: initial; float: none; display: inline !important;&quot;&gt;KRAS 연계 &lt;br&gt;다운로드&lt;/span&gt;" style="rounded=0;whiteSpace=wrap;html=1;labelBackgroundColor=none;fillColor=#d5e8d4;strokeColor=#82b366;" vertex="1" parent="1">
          <mxGeometry x="246" y="1020" width="103" height="71" as="geometry" />
        </mxCell>
        <mxCell id="ihf8nai4vk2Wt9ODxZiB-38" value="KRAS 연속지적도 갱신 작업" style="rounded=0;whiteSpace=wrap;html=1;labelBackgroundColor=none;fillColor=#d5e8d4;strokeColor=#82b366;" vertex="1" parent="1">
          <mxGeometry x="359.5" y="1020" width="103" height="71" as="geometry" />
        </mxCell>
        <mxCell id="ihf8nai4vk2Wt9ODxZiB-39" value="KRAS 용도지역지구도 갱신 작업" style="rounded=0;whiteSpace=wrap;html=1;labelBackgroundColor=none;fillColor=#d5e8d4;strokeColor=#82b366;" vertex="1" parent="1">
          <mxGeometry x="473" y="1020" width="103" height="71" as="geometry" />
        </mxCell>
        <mxCell id="ihf8nai4vk2Wt9ODxZiB-40" value="&lt;br style=&quot;border-color: var(--border-color);&quot;&gt;공유재산 DB 연동&lt;div style=&quot;border-color: var(--border-color);&quot;&gt;&lt;br style=&quot;border-color: var(--border-color); font-size: 16px;&quot;&gt;&lt;/div&gt;" style="rounded=0;whiteSpace=wrap;html=1;labelBackgroundColor=none;fillColor=#f8cecc;strokeColor=#b85450;" vertex="1" parent="1">
          <mxGeometry x="246" y="1098" width="103" height="71" as="geometry" />
        </mxCell>
        <mxCell id="ihf8nai4vk2Wt9ODxZiB-41" value="조직도 DB 연동" style="rounded=0;whiteSpace=wrap;html=1;labelBackgroundColor=none;fillColor=#d5e8d4;strokeColor=#82b366;" vertex="1" parent="1">
          <mxGeometry x="359.5" y="1098" width="103" height="71" as="geometry" />
        </mxCell>
        <mxCell id="ihf8nai4vk2Wt9ODxZiB-42" value="차세대 세움터 파일 연계" style="rounded=0;whiteSpace=wrap;html=1;labelBackgroundColor=none;fillColor=#d5e8d4;strokeColor=#82b366;" vertex="1" parent="1">
          <mxGeometry x="473" y="1098" width="103" height="71" as="geometry" />
        </mxCell>
        <mxCell id="ihf8nai4vk2Wt9ODxZiB-43" value="연계 오류 발생 (공유재산 DB 연동)" style="text;html=1;align=center;verticalAlign=middle;whiteSpace=wrap;rounded=0;" vertex="1" parent="1">
          <mxGeometry x="328.32" y="972" width="194.5" height="30" as="geometry" />
        </mxCell>
        <mxCell id="ihf8nai4vk2Wt9ODxZiB-44" value="" style="shape=image;verticalLabelPosition=bottom;labelBackgroundColor=default;verticalAlign=top;aspect=fixed;imageAspect=0;image=data:image/png,iVBORw0KGgoAAAANSUhEUgAAAVsAAAEuCAIAAACvQibIAAAgAElEQVR4Ae29h5scxbX/rT9NKwQi7ConECILLiYZTDLZRNuAAYMNBky6v4uxAQPGgMlZSCQhQAKZJJCEpJW2q8PM9HTPTM/7js7qbG3FU9Wzq1ltz6MHanunz1ad+tanT1efqp7Tbre7xk8cx4yxJEmY/pPnudFGt1arWY1kWWY2Uq/XGWNgSleXNE3NRtI0tdak0WiYjTSbTauRer1uNpJlGWMsjuMoinTNSZLEbKTVajHGogMfnZEoisxG2u02GIG+VtoJw9BspCgKxlgYhmapmI10u13GWBAE5l7udDpmO+BSs5FWq2U2Ag0xGyEq32yk2Wyaa9JoNKZN+XOIRDAPAKJfzEaIRDC7hkgEc02IRDAbIRIBmhOGoXIcEokANdEZIRLBDAUiEQAKBrKYpQ9EACOGUUQkglkqRCKYe5mufENziEQwN4eufENNGo2GAxEMrqH7xWCETgSDa+h+MdSETgRDTehEgJooxzOdCIZwg04EQ7hBJ4KZLEQimMlCJ4Khg+hEMEjFSfm6oUgngqE5TsrX1cSZCDrXOPlFZ8SJCDrXOPlFVxMnIuhq4kQEnREnIkBzZLI4EUFHFiciGMhCJ4LhHsSJCNAiOQRzIoJOKq7KVw5FJyLopOKqfGVNfIigdI2rX5RGXImgNOLqF6URVyIoO8mVCMqauBIB1C9AwZUIMJ4FI65E0EUKTkTQQcGVCMrZDVciKDvIQ/nyLZUrEZR681C+DAVPIsiu8fCLbMSDCLIRD7/IRjyIIHeSBxHkmngQQTZiIUKn084yNjYmXEXjOOah4EEEJRRciaA04koEJVk8iCD7ti/K9yCCXJN+Kd9tHgFFI0DXzy9COOdHBME1fn4BIzgA/IggGPEjgmDEjwiCEZ4IRd4qAtbZ/lPr8y35xo/z9z7IXnk9ff4l9uzz7OXX2Btvsw8+DL/Ywn7YHozu46HgRwQYz/zDFA8iyFDwIIIMBT8igG9xIHgrn38i40cEYfj0S/meRAD/Yvzj7Rc+yvUmAj8AvP3C18SbCHxNvInA18SbCHxNekQois6+/fkHH6X/+0Tt5tvj8y8LV57KFiwN5g5P+nfUkmD5ycEvfhVc99vgLw8HL70S//cbeAriTQQBCn5EEKDgRwRBtN5EgMshXD/KKD+KIjDiTQS+l8soP0kSqIn/XQMwEl1Txi84AMoQAY2U8QsaKUMENFKGCNDTURSVIQLUJGIs2rS58cCjySXXhCecweYvnoQAgQj8j0csClacHJx3afSnB9mnm8MgMA9myEfAi6dQwIwJsxF8+iicDj9GUQQXIW8iIBTCMPQmAoYbYRj2RflliIB665fy5yRJUjN+sizL9Z9Wq1Wv161Gms2m3kbearUajUYcx8aK1NI0NRjJ8zxN0yiKShrJsqy8kTzPrc1pNBrm5rRaLauRer2uNZJl2Y87krvvZ2vWKcIBfvCbywuWhmvPCu74c/Lt9zWjWrQ1OfCLdrttdWytVrMaSQ58zL1sNVKr1ayitSq/0WhYjUyP8pvNplUq1uGT53kURXMgEVCJZDhoTWEqisJqxIrSoiggm9BQE2sQ0e12sywLgsBgxIpSMGKwwBizBhHdbjfPc5yYUFqzBhHdbrfVapmNGIKI7K132ZITg6ERalBg5sLQCFt0Anv238q2wGXTev3vdDry/LZgkGLEqjdrEEERrTWIoIjWqvxutwspsIIf+B+tQQRFtBTl53k+B9DC/3mhbCVCt9tLUuZnSgQLjDGKXyDWkM/FIxQipGlq1hzFL81m02yEQoQsy8w+IRKBn95DV2BBQYR2u7NjZ/2WO/rGAoEUl1/HvtzK9u/HOkDBOtEAQx1uiIRz+R+tROh2uxBr8GcJZSsRut0uXN6FE/kfrUTol/IbjYZZbxQi9Ev5PSLIT854vxCJYO5pIhHMRohEMDeHSASzESIRoDm6mIVIBDCiixQEIhTNLN/4cXTmL9m8hf0JDQQczB0O5o0EZ5wXvPE22zvK64ROBHMvE4lg7iAiEcxGiEQwN4eifOuyBSIRzM0hKn+cCIZW0YlgMELxC4aCuksrnQgG1xD9AlrX1YROBINP6EQAI0oo8EQo0jR79c3o1HN6g1YeyX08Mm8kOPls9twLbM8ehIITEcIwxAdVaAEKdCIYfEsngkEqdCIYakJRPhDBUBM6EQxGiMqfIIKuVU5E0Bmh+AWJoDPiRASda4h+QZkqoeBEBF1znIigMzJBhE4ne/Od8PgzpupmQQDK0Eiw6jT2/EuY2uREBJzzRz9jwYkIMNOO52LBiQg6I05E0HUQRflIBJ1onYigM0JU/iQiKF3jSgSlayh+4YmgNOJKBDAiBO1Ev6C2lDVxJYLSiCsRlM1BIrS3fh2uOGVqQwMBCnOHg6Vr2YaPwFeuRNBBwZUISt+6EkFpxJUISiMU5fNEUI5nVyIojRCVLxJBhoIHEWTXUPwiEEFulQcR5JoQ/cITQTbiQQTZiAcRwCc844AInd172MITphsHBwDBFp7A/vst8VmDnG6AeQrocA8iyPcgHkSQO8iDCLIRivIFIsjK9yCCbISofAURBP/6EUFwDcUvMhEEI35EEIwQ/YICxQLmdRGfPsKGKHg6FPh7ED8iCD2dJEkRJ8nFVx8SHMAfZedfxnbs9IgRwCcCFDyIADzic6X9iCBcDv2IIOiNonyZCEIv+xEBjOD1g6h8BREE/3oTgfcvxS9KIoB/YVLNmwjgGjBC9IswknE8gxG/GAGNQMGbCLzm4rGx9P+eZEcvO4RECI5aGvz1MTY6ShnMSsfyUKAY4Qc/GgzDEI97E4G/HHoTgRctRflKIvBGvIngoXw1Efh7vDJEwFZR/KIjApAlDMMyRMCalCECGCkTI/BQKEME9Em8fkN08tmHEgdzh9nQCFt7VvjeespgxgEsFBAKFCM48mUjxDRnyEcQTocfAQqUNGfIR1AaQb1RlK8jAhopQwQ0QlS+lggIhZJEgLUPFNwaiACtojjXnPgYxzHFueYcsiRJKM5V3jWgepIkKUmE3uKfn3ZEN/8hmL/o0BKh99fnL2I33V4wy16M8jwCOgTWMvHLNA1o0BEBjMRx7B0j8FAoqXwQLUX5BiKAkZLXQrh+UETbbDbnNJvNTP/J8zzLsrrtk6ap3kbvN3me22zUrUba7XZ5I5BIa7YzPTVpt9uNRsNck0ajoXVss9l4451w6dpDjwOYYly8pvbam/VazdwibXMO/KLValH01hfRWo0MlGjNXq3X7cOn0+lQjNhXQ1szRilJytY0Z8aYFYTWNGfGmBWEaZry03v8NQrL1mmCZrPJTzTiiXzBGgJkWWbeiBmuD7pLZTG6r3bFDQOCg/FqXHJN8sOPvBPksq45eFyYVJMtMMasIUAYhua8YMaY9eptTXOmKB/WZSlbgQetcas1zbmPyrcTIY5j627Z1ngeusc8FClEgEGCrpQLFCJYjVCIYDVCIQIYUSYjQtMw3QAHzHihU2QvvcaOJC9tllMJpuAIm7+YPfVcEvXy4nUfsSHSz3CieTxbiQC3FWYjFCJY8URUvrkmFCJYa0JUvrkmDvsjmKFA9It5FBGJYDZC9IvZv0QimI0QiWCGgo4Inb37otPOHawAARBz8i/Cb78zoF8igHgAiCBs0iXwhUgEcwcRiWA2Qle+YSgSiWCuSb+UT4oRsD90raL7xTCe6UQwGKH7xeBfOhEMNaETwWBER4TGnx4cRBwAFG79Y1Ri2QKKzQAFOhEMvUwngsGIk/J1w4dOBENN+qV8NyLoKuTkF90AcCKCzoiTX3TNcSKCriZORNAZURKhtflLduzKwSXCMcvZ+o3xgQ8ObyyIIYH0M34Tn3bxR6DsRARdLzsRQWekL8p3IoKuJv1SvjMRlNp19YvSiCsRlEZc/aL0rysRlDVxJYKyJjIRiixLLrxicHEAYcI5F7O9e3ETNH5ISwQQD/BfxqeJwkFXIijDDVciKDuoL8p3JYKyJv1Svg8RZP96+EUeRR5EkI14+EX2rwcR5Jp4EEE2IhKhKLIXXmHHrRp0Ihy7InjyGRYE8sMUEQDSz8LgV0LBlQjKcMODCHIH9UX5HkSQRdsv5fsQAfzLzx75+UXwrx8RBCN+fhH860cEoSZ+RBCMCERo7/w5Pu+yaVrvXOZhxNBIcPZFbOvXkBvDJxRJBBAPyETA5CX8lQcR4FxetH5E4NOcKU8fdXMHfE38iCCItl/K9ySCAF1vIvADwJsIvBFvv/BGvInAG/EmAt/TPBGKtJn+v38EgzyDwEPk2JXsgUfZnr2YcA1jUgSA9DMOe6HA34N4E4E34kcE4XLYF+V7E4HXW7+U708EHgpl/IL3IGWIALIj5mkIUuN/hKz4MkTA8VyGCNjTPBFaW7dF6y4Y9PsFHgqnnsM2ju+egLtFSgQQD/DdIZRxPHsTgb8H8SYCD4UyysdeLkMENFKGCGikl49Qs6WdWpM9YZ9sc4KkNS8YdmcvbySKopJGIJVwEIzAFu9Qk8b+/dEf/zIQSxj4MW8uz1+c/OmB5oFs1CzL2u12GIZmx9brdWuaMyTRmu1YRQv5iCWNQBKt2YhV+ZBEW9II7M5e0ggof455lQVjzLreo9PpmNcXUW63KBtdW4OIbrdrrYkVpZTdsq1BBOyWbUhGZIxZgwjY4h1uwoONHwcjq2dSgHAAFmx4dWvL1xgGtNtt/v5ZCAHgR/yyrkDZ4t0aRHQ6HavyrUEERbTWIIJixBpEUERLVH5v7aNu8gN6yEoEykbXVr90u13rsgUiEczNIfrFbIRIBN3mouBYChHgJS5s3/7g8t/MOBxAhZNrbinyFg5vvKtS4oAxht80FKxrbaxEoIjWSgRYDW2WCkX58CYYnUMYYxQiDOLu7AbXUPwCq6EN1xAiEfCmSOliIhHMwiUSwWyESITere/LrwdTt9u6OfIv/9uhkezNd3F4Q6cYehm/aShA3GQwQiSCuYOIRDAboSgfohVDc4hEMNeEqPyJ/RF0FaLECMgCLAijkeIX3B9BVxM6EQxQIPoF6l+r1XBTKr5FdCIYOolIhPDb74M162ZogADVjk48szO6D0Y4uFF4hsf71gAC/BU+ztRJhU4EQwfRiWAwQlE+3r/omkMngqEmROVPEEE3ipyIoKsQxS9IBF1NnIigM0L0C2pUyTgnIuh8QiJCnrO77pvROIDKN+57qNvp8Dum6KCAw95QQCLoetmJCLoOciKCzghF+UgEXXOciKCrCVH5k4igrJArEZRGKH7hiaA04koEpRGiX5AIMAXI/+i3q5qMfwoRmp9uDladehgQITz+9HzzFzwR+AeBvHsNIMBf8URQksWVCEqpuBJBORQpyueJoKyJKxGUNSEqXySCXCEPIshGKH4RiCAb8SCCbIToF16jMhRcYwSwJkDBToRmM7nh1hk8g8DNQbB5C2s33lqkqeBY3F4Rj+OwNxR4IvB5MWjEgwiY0oJGPIgg642ifIEIshEPIshQICpfQQQBun5EEFpF8YtMBMGIHxEEI0S/oCywwFfPjwhCTSxE6BT5m++GK6f9pSzcMO5vbBKuPCV7810mvblbgIIBBPgrgQgyFPyIIHSQHxEEIxTly0QQjPgRQYACUfkKIgj+9SYCD12KX/ghh+OQd403EXjXEP3CVwDLSZLARKM3EfjmmInQ2TOaXHPzDFjC4EKQ5Kob2X+/QX9iATMa6U8f8Vws8GTxJgJ/OfQmAt/LFOUricAb8SaCh/LVROChUIYICAWKX3REQNeUIQIaKUMENFKGCGjERIS81fz3y2x44Nc4uuAgmDvMhlexfzzDRvfhMMYCQgEDAUNBjhHADkLBmwigfLBfhgjYyxTl64iARsoQAaFAVL6WCLjgrCQRALoU5xqIAK4pSQQwQvQLKlUu9Gt39lqtphN9Z8/e+OyL+hu0D4g1tu58tk0RJsDFg/hiKB0RULRliIBQKKl8aFFJIvRL+bVajXIZ6+3Onho/kI5u/Ir9l81ms91u279n+wakS9u+Zfk9JI1avmT7NeTA2r5l+b3BJ/EDjwZHDMBbGBxDAAp02BGLkr8+pnMNvA1A91vicXgbAPHLuq/1RbTNZnOgRKtrLH/cvvbRmjFKWbYAq6Hk6y1/xBoCWNOciWsfhTl/vg5QttK0j7uzK9Y+fPd9771pUzAaB8QmO2oJJizJURKGynK/4BFrCEARrTVutSb490v51psCa5pzH5VvJwIk5ysTdbCHrKERnG42QiGCVS7WmwJYCmWGAoUI1pqYpgkOjAN46RPeP487c3SUXXbNgAzdqatGctWN3SyTcYAJC+YOohAB759RpULBSgSog1m0fVE+hQhWvfVL+VQimP1L9IvZCJEIZtcQ/WI2QiSC2QiRCGAEI4Xg3/85XO8XJvHliEXZa28ZiIC7ZgjDGH4kEsGsNyIRzEb6onwiEcx665fyHYhgcA3dL4b3PtCJYHAN3S8GI3QiGIzQiTBhZNs3wdm/OsyeOE4CAd4KDY3E517S2b1XhgIiwAAFOhEMoqUTwWCErnyDEToRDEaclK8LfBze4IL9pLTl5BcdFJyIMDGKsGYHCk5+0RlxIoKc0Qg1ciJCr6ejiD3waHDMcvUQwrF0uBTYsSvSx57ottsCFPj+1EHBiQg6I05E0A1FJ+XrjDgRQSdaV+UrB7IPEZStcvWL0ogrEZSucfWL0ogrEZTNcSVCsPGjcN0FsyJAAKgNjURn/bL91TYDEXRrH5yIAE8T5YkJVyIoe7kvynclglK0HsqXoeBJBLlCHn6R/etBBLkmHn6RjXgQQW6OGxH27An+eN/Y0MgsCRDGmzk00rjv4aLR4KHAxwhQxu0V8VeuROAz7tCIBxHk8LYvyvcggqw3P+ULUPAnghCJ+flFaJUfEYTx7OcXwYgfEYTmOBAhCNg77werTptdODgQKYTHn9H6dHNxYKE0cAFHLF8QoOBBBBkKHkQAI/wo6ovy/YggiNZb+Xxz/IkgRGLefuFb5U0E3oi3X3gj3kTgoeBAhF0/sxt+PwtxAE2u3fyHIplI3+RBwJf5l8H4EUG4B/EjgkCWMsrHoehNBF60ZZSPNSlFBN6/ZfyC4UYZIqBryvgFjZQhAkLBgQgvvTpj3sIwBfOa7NiV+Tvr8caBp4BQRih4EwFES1y2IE89YH1QtGWUj3orQwQ0UlL5AIUeEer1Op/D6FrOsgw2unY9kf9+s9ms1+u1Wo0/6FeGRQd+58JZkI9YxgJsyB3HMckIY2ww3/s+BYNfFwex085tjAUUd+V5HoZho9GgfFn3HdyAX/cFyvFmswmZuJQv677TbDYhH1H3Bfrx8sqHfeJ7REDyKQvW9R6Uja6tKKXsUW0NIgZqd/Zms4l5R0rHQhCRPva3WfR8QUeZeSPB/Y+AlzBY0BXa7TZGuUrHMsasQUSn07Eq33pbMW3KtwYRfVT+HGsGuJUIsNG1IcSipH/D7uzmniYSwVwTa3AFW9+ba2K9rYD3NZhrUq/X2z/tPPyWPOsCAcvxY1ewL7bQ90cw+9ZKBIporUSgbPFuvRZ2u13rsgUiEcw+ISp/fDW0YQBQiACnG4xQ/ALMNhghEgHvrJQXEKJfcDpAaYRIBHNNamNjtVvuODw2TbOMdl1owB1n8xYG193C9uzRhQb8cZgIMAwAIhHMvUwhQl+UD/sjGJRPJIJZb0TlT+yPoKsQnQgG/9KJYDBCJ4LBNUS/AAh0PqETQducIIhfeSNcfnL5sXT4WFi6NnjxlW5R8INfWcb9EXRQoBNB20GM0YlgMEJRPu6YotMbnQjllT9BBF2rnIigM0LxC39fp3SNExF0rnEigs6IExHUPvnm2/DK66sAYRLO5i0MLv9NZ8+okgL8QSSCroOciKAz4kQEdS8zRlE+EkFnxIkIuuYQlT+JCEpbrkRQtoriF54ISiOuRFA2h+gX/mZBvhC5EgGaM/EymP37g388EwzPvPc4ThrAXMzft+Mjq5vP/6doTbwVjgcBlnki8DsjYq+5EkEpFVciKEVLUT5PBKURVyIom0NUvkgE3BkRnetBBLlCFL8IRJBd40EEuSZEv2DzoSBAwYMIfHOCLVvHfvErNttylmkEiS+4vP3TThz8ygJPBEgZEo54EEGWigcR+F4G5VCULxBBNuJBBLk5ROUriIDZF9AkPyIIFaL4RSaC4Bo/Igg1IfpFIIJgxI8I0JxgdB977G99u6jShtnM+nPp35/pci+PlaEgjH8+WQ46zo8IQi/7EUEQLUX5MhEEI35EEJpDVL6CCAJ0vYnAV4jiFyUReCPeROCNEP0iE4E34k2E3tLpbd+w1bNxCQOdSuGq09o/7pBBgEdkIvDJiJR8BHhwKPcyfw/iTQReKhTlK4nAQ8GbCHxNiMpXE4GHbhki4D0IxS86ImCryhABjRD9ImsFjsDtgz8RxsaCG26lj41Z+83a7+6St04wE4GHgneMwC9bKEMEJ+XriICiLUMENEJUvpYICIWSRADoliQC+LckEcA1RL/oiABGrGsWIENJYeS1t8YWLJu149yh4QuW5Rs+QgQIBWWMAN6GfSvLEAGhUJIIIBWK8g1EACMlieCk/N7u7A39J03TTqfTtH2sRoqisNloWo1ANqHZjtkIXNvNFppNS00ajYZnc0b39fZEORzv/KeiUdGZF6T79ik7y9zLsCe68kT+oNnI4Ch/mkVL2mdRmR3AXwCtIEwOfPhT5LI1BKjVasKcv2zEGgLAcg75RP6I9aYAVkPxp8hlOY5I/+8fh/e26/3lwtiRS4K/PiY7ljJNIMyOK41YQ4Bqd3YhNBv/MY5jeesYwcVWIgBTzGSxEgEmGsxQoBABgiihCfyPFCJYjQhEaP/wY3TGef0dM4e/tZP/h23+nO8aKFtvCuC2wiwVKxHgdLNo+6J8600B3FaYa9Iv5ZNiBMaYGQpEv/DTp3I3E4lgNkL0i3k8E4lgrglPhKKRNu59KFhwOL+XZUrwdNSS4M4/s917BLUQiWDuZSIRzL1MVL55+BCJYK5Jv5RPJYIZCkS/QL/qUEcngsE1dL8Y5EIngsHIBBGKovXxpvCk/5mSMXO4z0qMrVnH3no3GBvjoUAngqGD6EQw6K0vyqcTwVCTfinfgQgGKDj5RdcqJyLojDj5RScXJyLojCARChbWb7ubHabvcZxyzM1byG6+nW3/0ZsIujkFJyLo9NYX5TsRQVeTfinfjQg6KLj6RdkqVyIoIzFXvyjHsysRlEbGidDp5Bs+YiPVEoZhf3YMrwpefYONBQgFpxgBnibKcwquRFCKti/KdyWCsib9Ur4zEcC/QuTv4Re5Va5EUOLJwy/yePYggmwEiFCkaXz+pf6D4XC/KSB6hp17CdszMZvgSgQlFDyIIIu2L8r3IIJcEz/lCwPZf+dVPtmTskWS8IcR9vxxDyKAHd6In1+E8exHBMEIEKH5wstE0VdfM3sg/Mc/WTAeJngQQYaCHxGEexA/Igjj2Y8IgpF+Kd8nRoBxyG+h7+0XvlXeROCNePuFH8/eROCN1Ov1zq7d4YpTzEKvfkv0AFu2Ntr2DWjPjwiYhgtG/IggkKUvyvcmQr+Uj9dU/xgBfIq8LOMXHEVliICuKUMErEkZIqCRehTVb72bKPfqaxQPhLf8Idq/n5KhZE5zjuOYEbZIkqceQPbwXzBSUvkwFMsQoe/Kn9NoNPjUTrlsTvaETSPr9bp8In/EbCRN0/qBD3+KXDYbgVTsJEnkE/kjZiOwV31fjMRvvB0sOoEi9Oo7RA+wxSfU33k/iqI0Tfk+lcvmXoa81fKiTZKkvBF4L4HcBP6IuTn9Ei2M5TkYMPD848vWlU7tdtuwbBFMWVFK2XLbGkRQtty2BhFFUZhXnjDGrEFEEcXR5ddV264Thzr1a0Mjya9/0xzdZ756U4KIVqtlVb71tqIvyqeI1hpEFEVhHYNE5ffWPpr9ayUCZaNrKxEGbXd2s0+sRGg+/xJbeDxV6NUDBbIHwoXHN//1UhRF5g6yTjR0u12r8q1E6Ha78BIX/goqlCnK78vu7I1Gw8w4KxFgwe74amiDfylEgKoYKkTxC0DOYMQaI+B7LAzNofil2WzidIDQwfCjmQjt7T/FF11Z4WCKPJD86qpwy1e4AYGygyhEAJEYpEIkglkqFOVbly1YY4Q+Kn9ifwTdUKQTASc55E6i+AXDHl0n0YlgqAmdCIaeNhGhmaVPPM2OXj5F46EyGyxYxh55PNw7auggOhEMRuhEMBihKB/vUnVjkE4EQ02Iyp8ggm4UORFBZ4TiFySCrlVORNDVhOgXhJoSTwYitL79Ppr173GcamyxU37BPv0M+kjZQU5E0OnNiQg6IxTlIxF0onUigq4mROVPIoLSlisRlK2i+IUngtKIKxGURoh+QSIofaIlQrtd/+NfqrcwTDURgqERdtvd7MDyJyFZDjrOlQjKXnYlglJvFOXzRFAacSWC0ghR+SIRZNd4EEGuEMUvAhFkIx5EkI0Q/cITQfaJjgjt/37LjqnuF0osYSBPMQZHL2cffwrdJEPBgwiyVDyIIBuhKF8ggmzEgwiyEaLyFUQQ/OtHBGEUUfwiE0FolR8RBCNEvwhEEJqjJkKnE5190ZRfHuljxvrNoZHe81Hhn/WsgfkCW3c+hAn8nqveMQKcyN+D+BFBkApF+TIRBNH6EUEwQlS+ggiQpwkpWYwxbyLws8EUvyiJwLfKmwi8EaJfZCLwPa0gQlE0n3txBuBg/iK2ZE144rrorAuSX19bu/5m/l/y62ujsy4IT1zHFq8J5i+aAc154ilc7BAd+JQkAn859CYCLxWK8pVE4EXrTQTeCFH5aiLwGeBliEBPc4Z8BOU4RP+WIQK6hugXc01kInR27IxOPWegh9D8xdGZ59VvvyP7z4vtb7d0k73ddEzxL9nb/nZL9p8X6rffGa07b8C5MHbimcGWrdhZ8YEPJUNJ974G/nJYhkD1mh0AACAASURBVAgo2jJEQNGWIQIaISpfSwSMxMoQAZeFUPyiixGgv5MkKUkE6CSiX1BkcgFyVydtSplljfseYgO8aVp04rrGQw+3Nn/cjfcoKKBEQ7y3tfmjxl8fitacMbCkGztyCbvzXnbgSST0VF92Z4dVfCWJAOEGRfm6GAGVX5IIAAWi8nvrGmBNgfK/sEd1ZvuYjcB25jYbGa5uUNakXq8XRTEgRtrtdp7nWJl0w0eDu2navIXJpVe2NrxXRGQWcIAooj2tD95NLrlyYB+gsBPPTN7fwGum0Wh0Oh3sHV3BLNo0TSl6MxsZKOVTfJKmKWk1NM4pyBdMOGIFYV92Z6/X6/zEj7IyVhCmaWptjnxTMCki6HYn7c7+40/sptsGdMAcsah2zQ2d77Z26/upoQGHg/FT6vs7322tXXNDMJgbw81bWL/t7iKK+T6yZigT1z5a9WZVPkW01hDAmubMGKMo39och9XQZltWv0AyltmI9aYAbivMRih+wXs8JVMoC5km0pzHxoKXXxvQNY7zRpILL+1s3+bPAo4OnR3fJBddHswbGcA7iHDJifn7G7qdDkIhiqIgCMxSsd4UJEliNUJUvi4ZERRIIYJVtP1SPilGgHobWkX0C05yKIcikQhm1xD9YjZCiRGgCfH2n4JLrxnAQRLMHQ7XnNH+8pO+4ACMtL/4JBzUOYXkqhs7+8Z4IsCmewYoUIgAvWww0hflE4lgHj79Ur4DEQwVovvFYIROBOWeq9B5dL8YoEAnQvDUcwP6mqb5i7N//6uPOABT2fPPBfMXDyIBj1qavfSaQATzeKYTwSCVviifTgTD8HFSvu7q7nDXAM7VucbJL7rxTCcCVEbZKie/6PxLJELww/Zg7VmDODzmDieXXe3wWIG7O7BAJNqTXHrVYDY5OuWcgoUABWEPJeXMkRMR+qJ8nd6ciKAbPv1SvluMoIOuExGUeygzxlyJoPSvq1+URqhEuPWuwdwThc1f1Ppkg2Vs0ykw+Zutjz8Y0HdPDI3U775fSQQ+WQ6vba5EUELBVflKvTkRQXc57JfyfYiAeUfoXA+/yKjzIILsXw+/yEZIRNjwUXDkQMbPc4fjc39VjO2cIiIUYzvjcwY1WXv+4taWr7vdrhAj8HlHKFoPIshQ8FC+rDcPIshG+qV8HyJg3hE6188vAhT8iCC4xs8vghErEdIwYhdeMZjBczB3OP3rQ9qUxMkXfB9qxHvTBx4c2LYnl1xTpKlMBBkKfkQQLod+yhf05kcEwUi/lO9JBAEK3n7hW+VNBN6It194PFmI0OnUnnshGF41oKNi3sL8rde7jRIJCGZqNPbnb742oPkXc4fDhcdnL74a4sVqcgHTnIn5CJPPHv+Jh0JflO9NhL4onzfiM7PI+wiXhZTxSxiGMEdYhgjYKm8i8LMbZiJ0duwKL7icDeST+WDuMBtZ1dr0oc/F3wwC7retTR+yQQUimzcSX3RluPVrXqh8Gd8z4hcjgCmEQknlw3PNMkToi/LRSI8IaZrq0jzhuDlPE1KyGo1GSSO1Wq1er5uNmNOca7UabD5ZxghudK01Eie1//f34NiVAxogzB0OV5/a/vLTKSVC+8tPw1WnDqwH2HGr4kcfr40FfGqzUI7juKRoIY+wpBGoVa1W0+rtwC+mTfm1Ws200glwaF3plOe5IYUDjFhRStkt2xpEULZ4twYRRVEon2tCQ4KPPw1OG+g1jtHaM9tbP5taImz9LFp75sASIZg7HJ9xfvvr/2J6glzIskz5SBJ6Gf5rDSIoorUqnyJaaxDR6XQMooXmUJRfr9fnJElido2VCLBHtRkKVr90u91Go2GuiZUIYMRcE6tfYI9qdU127wl6m6YNYiYvjs/opGkhwkkDTYRg3kj9gUe7aSqzAI/UajWzVKxEgCX8ZiNE5ZuNWIkAezGrRXsQckTl92IEvLM6eO6k/xOJgHdWk04++APFL/V6HecUDp436f8UIqRpirMbk04++APFL81mU9mc4MNPgoF/73tFBIAjGzneHCYkSWJWPoUItVpNKZWDcmMU5TcaDbMRIhHMRojKH79rMNgiEkF4+oAegQLFL7CQyVATIhHMNSH6RWFkdJRdfh1eige2UBEBuya5+uaimWFQIBTgsmzQG5EICqlw6qcoH/ZHMNSESARzTYjKn5hH0FWITgRDhSh+4XdMUQZRdCJAjyjvrIh+wT6dqMnzLw1oSv/kjQ8rIiAR2PzF2etvCSDAH7FndcqnEwHUggZRPIxRYwQ8RWmETgRDTYjKnyCCzpYTEcCIPBRdiYCPQ9BTlDRnfLMNniX7l+gXtDBek2++Y2sG+875IBcqIiARegtA157V2bMXKcAXBG0IP1ISFmAGjZeKbISifGEPJdmIKxGUw4eofJEIcga4BxHkClH8wscI4GWBLK4xgtII0S98N7MgiO66bzCXMPDqh3JFhEk+mTdSv+eBblHwLICyPPCEI64xAmhGMEJRvkAEOVfagwjyGCQqX0EEIYjyI4JQIYpfZCIIRvyIIBgh+mUSEdZvDAb48fukATB3uCKC4JDw+NNbX26lEEEYin5EEIxQlC8TQRCtHxEEI0TlK4gA0wGYGe5NBN41FL8oicC3ypsIvBGiXyaIsOvn4PrfD+iGYgfvFPgxUBGB90avfMSi2i13FPW6AAXhYg49zj+o8iaCq/KVROBF600E3ghR+Woi9HF3dnhGWoYI2KoyREAjRL+ME2FsjL3wcrDiFFFkqqE4IN+piCB3RLj69Oyt9/ht1wy7s+Or6MsQAaFAUb6OCGikDBFcla8lQh93Z4/jmOIXXYwAg7Mvu7PXajU3Ivz32+CK69m8hbLIBvZIRQRF1wyN1K69pdi7jw8TlDECiA1eBlOSCDN1d3ZYmAB7Jcv/rdfrnU6nZfuYjdRqNYoRSBSX6wBH4jguisJWkVaapjoLcJxSk3EjjMXPvjDISxgU0q/mETThGztuZfrvl1tpEyU0DaJNksRBb3rh9kX57XYb264rkHZnt6Y5Ux661mo1c4ol5eGiNc2ZuEe1tSaw9rEIWLTuAuWoG+SDVYyg6x126jnhD9vH7wcZs4YA1jRnivLr9bpVb9abAsorBazBb7PZtNaEuhpaePqAPsWC9aYAkj3NFbJOE0CasyHYIxKBnz3CJvAFIEL66N902hrk4xURDL3DHngEO9pKBEhzNuutL8q3EsGa5txH5TvsmGJwDcUv0BMGKFCIAEYMNbGSMk1TQ24l2G80Gu2fdrLjBnVPFE1gDCOhIoKBCMHRy4Mvx98TSSGCVSpE5ZuvqRQiQE0Mw6dfyncgAs58ImWxQPSL2b90IhhqQvSLmSz1IEiuudkkLOOYPLQnVkSw+P+K69nu3ZSURP7Cw5dR9pS7BsyyM7wMhkgE8xso+qJ86l0D7wKla+hEAFPoJt6yExF0UHDyi85I8uKrwdHLLMIaVChURLB03IKl7LkXXImgG8+uylcOHzoRDMOnL8r3IYJyFLn6BZ+RliGC0oirXxTN2fZNeN6lMyVnWVZ/RQTZJ5OODI2wcy5m//2WeNfAS1Qezx7Kl424EqFfypcvzJ5EkG+KPPwit8o1RuB3RsRu8yDCpJoEAXvwMXbsikkaGtRwQFnJighKt0w6eMzy4IFHW5l2obRu4YN8/fBTvgAFDyJMEu0B9ZdV/gEjnkSQpwP8/CL414MIMhT8/IL+7e2Jsu78SeqZUTgIqnwEYn+tuyDb2nuzg+EjjFu86vDTe31Rvh8RULRQsZLKByP+RBCg4O0XPtzwI4IABW+/9Py7bz+75wE2mO81JAq9IgLRUUcsqv3l4aLe8CAC//TaW/n85dCbCDwUSim/VusDEfjHIWX8glDwJgIPBX+/BAF774Ng9WkzOkCoYgR697ETzmht+rzg3jEv0EEXI/Rd+WWIgFDwV/4BGMCcQi9GyLJMl9IIx63JnkmSpGla0gjsrW42Yk1zhr2uzUa0ac7790c33DpzJxRxJFTzCOgKS2FoJLnx1jyOdYIxKx9yjq3KN4s2SRKK8rWiPZj4XEr5B4zAdvV9252dv7OC8EP4rzWIyPPcasQaRLTbbQPXoUo6lGbvbpjRE4qo/ooI6Ap74ehl7JU3BK3ij9aHERTR9kX51iCi0+lYh49O+RgZdTqdJEl6u7PjVgjoC75A2R/Bmrxt9Uu/dmcHmvL1F8pKvxR5Hp38C7uAiPeoh/RrFRGc+nFszTo2OiqIBH60EoEiWqLyzWPQSoRut2tdtqBUPuIACnme91ZDm/eophChVquZjVD8Uq/XzUasMQLss2g2ovBLUTQee8JJRoP85YoIrr3DHnwsGBuToUAhAizhM1yfKcpvNBq4KYNcDcYYhQjpgfffGmqiUL7AgwNYGd8fwTCKiEQQnj4IDaP4BfZHMNSESAR+uxehGsoFIe3vfgiXnuQqo4H9fkUE165hS04MNm2WpUIkAj/RKBuhKB92TDFAgUgEV+VLQOgFGhM7pvDPVPiG0YlgqBDFL7hjis41dCIYOkkgZVGr139310x/4siPgYoIvDdI5fmLw5tuY7t+5mVPSXPm92LWiZaifNxDSXc5pBPBcGEWlC/jAG49JoigG89ORNBViOIXJILOiBMRdEYEv+TvrB/kl5qSBD152qIigofTguUnRf95vQwRQG9y0E5RPhJBJ1onIuiMCMonEUHZKlciKI1Q/MITQdkqVyIojfB+6ewZTa69JZhRm6ZZ5V4RweoixRfmLWRX3JB8P7GfimuMADTB5BqEC0X5PBGUonUlAhgRli3wylfiQBEjYKt41HkQAezwDwIpfhGIIBvxIAIY4V2Dfik6new/r83QTRAUmj4YKVREMDjH9KtjVrCnn4vDEDTjRwQ4lx8+FOULRJCV70EE2QgqX4cDLRGE2wdvIvB5mhS/KImAKVmUbdfkdzph7yIU0C/tHbviCy43SeTgGJtZ36mI4N9f510afrUNxzN9ZhFlhgW8HFKUryQCP3y8icAbQeX7EAGiDnBNGSJgEEXxi44ICAXvGAH6CaAw7pd2u/nkM4fZ/QKMhIoI/kSYtzB45PEoCED5ZYiAQ5GifB0R0EgZIqCRskSASCGKojJEQLJQ/GIgArSqJBGALOCX9o87wuNP95fOAIcPFRFKdevq09kXW8IwjKKoJBEGand2WGpgiA7gV72nj5CzCBvUy/+FjdXbtg8kF8mnwxHYWN1mow15GgYjnU7HagTyNHRGAHDtPK/d/IdSuqmIcNLMeC+uRy+z626JggA2Vrfqzap8imjNyo+iiGLEqvxWq2W10yOCNQSwpjlTdpujbKxuDQHAcXirpixYQ6Nmsxm++kZw1BIPrcyIU6oYoWQ3sQVL8w8+7Ha7MNqVMsOD1uCXonzrTQGMdvyjyoJV+VmW4RSJ0gJjjLo/gi5xAu1a/QJpzubkbSsRkMf4d+WC1S9pELDTzi0pmkE+vSJC+d6Jzji/qDfgWmgeRRTlw0IBWat4xEoEDCLwFLlgV74tzdmBCMLTB7k2FL/gnIJ8OhyhEMFqxOKXTif5378HC2bqrqoUrVdEoHjJ/B129PL0788kUdRH5RsuhxQiWGtiUX63C+8lMF/dqTECjFiDLSIRoFX4YEZAA5EIZteY/dL67gd2xszeNM0s5WrHFKt/iF+I1l0Qf/4lSFSX4E+5X8bH3vjcTZA9ZSETPoww1MSsfP7BvKEmbkQwXJ/pRAB3KKFAJwIYUYZzBr8U9Xrj/kfY0cuJmpihX6tihL50HFuwLLzn/vDn3psdDBchJ+XrhiIxRoCa6KBgUD48R4AYAY0ox6AzEcCcPBSd/AJG5Aq5EoExJtdE65eiaG36PFx7Vl/kMshGKiL0rXfWrGPvvM+CAEeRrLe+KN+JCHBhloePVvkHHznyRNAZ8SSCPBQ9/IKJE+BuSkqiMmFBcI3OL50wqt9292GZkiQMgIoIgkP8f5y3kN1yO/tpB0pUFq2H8uWXwbgSQXlN1Sn/IBDG5xH4tmDuHx70J4IQunj4RW6VR4wARvBWTbn9AXgk/3Tz4T2hiLqviICu6ENhwdLgrXeDg2GCLNq+KN+PCAKe/IggQMGfCMKcgrdf+DsrbyLwrVL6pWg04guv6IM+BjgxCVtXEQFd0ZcCO/8ytnsPXkWFeNtb+fx49iYCb0SpfAwQ+JlFvi3CNbUUEfjpljJ+QSiUIQK6RumX5vMv9UUcM8JIRYS+dxN74mlhFGGMXEb5ePddhghm5ROJgNfUHhHyPDenaprTnJMkieO42WyajWBykTK/OI5jyLs2G8E8DaWRKIpqtVq9XheMZN//EK48pe8qGViDFRH63zXLToq2fi2oro/KbzQagmiFH/2ULxixpjnDFu9zDIkTwEVrmnOapiG3qlygKfxoRWmWZdaaWIOIVqslGAn27WM33dZ/iQzw7UNFhKno7trv/9httfhLbrfbpYi2L8q3BhHtdlt+DiKMRGX4zLcItnifU6/XzePZSgRKBrjVL7DRtTCehSZZiQBbPkwy8uqbY0vWTIVEBtZmRYSp6Bq2bG12YLEDP4T6pXzrsgUrERTKFwYPY1YidLvdVqvV22fRnHdNIUJf9qiGlz5MGs+TW0UhQpqmE83ZuYtdeu1h8JomJ4lXRHByF/XLQyPJFdcXcSIQAZRvEC39WmgwQiECKN8QKVCIMLEXM3Bh8gAc/4lIBJgm0bWK4hdINzDkShOJMF4Txtg/nmGLTqB2+QDfCDg1oSKCk7voXw6XnNh84ZVuu81DAZ58G4YPRfmQpAzzFMoxSCSCeQy6EQFsKQFDJwI8fVBCgeIXTEDSQYFOhF5NvtoWzJonjrysKyLw3uhvObnk6vZPO2QilFQ+LlvQkYVOBENNnIkAtmQoOBFBZ8SJCGBESEakJDVOPHTdO8oefTw43JcwKOVeEUHplv4cPHp5+o9nimaGUOCz45QXeYrykQhCmg/GC05E0A0fHyIox7MrEaBVQqRA8QvGCOAIfOSLfnGIEb7cGpx42G7yYxZ3RQSzf0r+Njr57Pb2n5REEJKXQLcU5fNEUI5nVyIojXgSQYaCBxFk1FH8IhBBbpUDEW69a7ZNKKLQKyKgK6akMDTSuOcBHRFkKFCULxBBHoMeRJBr4k8EqBBe5P2IIECB4heZCEKriEQIv9gSHLFoStQwE2YfKyJMedcfsaj1/XaAAn/XgMEspuFSNlCA5+54LhZ4I35EEIZPKSLwUPAmAg8FbyLwraIQoRGw4H9+OeWaGGA0VESYht6Pz7+sqDf49z7iSIYC3vNSlC/HCGgNZtO8iQB2wEhZIiAUyhABoUDxizJG4F1jJ0JRJE89N2vvF2AkVESYBiIEQyPNZ1/oFoUyRuChQFG+gQiwbKEkEcAIlQhJkoT6D2ysXtg+tVpNb6O39X2n07HZKBqNhsFIGIbtdttspPX99vCw3lWVovWKCBQvlf9OvO6C9g8/mpUfhuH0KL8oClhMYBhBrVbLPHyKoiDtzm5Nc6bcLFGMWEMAywKK0VF255/Z/7+gfYBD+mmoW0WEaXBy708ctYTddW9er3eNH7jOMePHGgL0XilgWzpkDQGyLLMaoa6GjuPYbMsaGlmTPSnpBpY057ffm7VPHPkxUBGB98aUlsdOPDP98BMjELoU5VuJAC99wMl+JV6sRIA0Z/NAphIB5xSUVaHECJjsaWiVNUaAiYaJZQt8bXbsCG75wyyfQQD1V0SYUgpMMj40ktx2dyeODVCgKJ9CBBiDhvFMIYI5zdntfQ1mW5QYAcavMq8LfkUkArhmUm7l2Bh75fVgyYmTemu23jtURJhOGbBlJ+Xvb+x2Ojoo4NSj+kp2QPpEIhiWGhj2E8SK4c6rhjHoECOYxzOdCIrxDKYZoxNBMBL8sD245Jrp1MEg/62KCNPcO7WrbuwEDAeeUEAiCKI9qPre/+lEACPKQJsYI+BAnnRNPVgbZyLA00S5Qk5E0LnGiQi8keDJZ8YO3/c4uuq7IoKrx0p+ny1Ylr34qgAC/JEnAj6MPzgAx//vRAQ+Q4e340QEXU18iKC05UoEpRFXIowb2fUzW31ayU49nE6viDD9vRmtWVdE6tkEgQhK5bsSAS6HwlJAVyIoa+JJBNmWBxEAb3zo4kEExljw2zurCUV+DFRE4L0xTeWhkfpdf8G4gC/IRJCHjwcRwAgPBQ8iyEb8iSC0ypsIMFkCdPAhwsaPgyMP2/e++6m5IoKf38qedeSS1taveRZAWUkEEDyOZz8i9C6HQYBG/IggGClFBB4KZYiAUHAmwo6dvQnFoZGyfXl4PZWoiHBI9MDmLUyuvKFIagIUDETAjdW9icCPZ28i8HjqEcGa22hOc4b9jrIsK4wfc7InGGk2m0Ybk9OcGWNPPRcsPP6QdP8g/9GKCIeqd9jiNc0XXikmJ+yblQ8LHNM0dVB+KH6ALI1Gw2zEmuZcq9V6RGC2j3WlEyVP0xpEUPI0+SCi89PO5OKrqwBBVn9FBNkn03RkaIRdeAXbspUfUlblU5KLrUFEq9UyJC9BfaxBRLvdDsNwDjCMb4NQthIBFnibK2T1C2yIJj/X5CszQYQ8b/79n+yYFdPU0zPqtqIiwqFUxdHL2KOPs9FR1C1R+ebhYyUC5eURViJM7M4O9wXYBqFAIYI1eZvil3q9bq4JEqH17ffRGecfyo4fYEaEa05vb9nUTcem7l97y6bwhNMr/6s9cPq57LPPcRBRlG9dtkAhQpqm8Po1/NNCgUKEid3ZDUORSAS4mdGhjuIXXLagMwJEKNJm+uD/qjtjgAfqtFU4XLa29fknU4eDbjrW+vzjcNnaaWvRzPtDf3og3DseJlCUD/sjlElzxj2HDVBwI4Jh2QKdCAAFZeRP8QvumKJzDRCh/dU2Vi1hMLDvyCWtDe9NLRE2vFc99DVxavEa9tEncImmKB93TNEpnxgjwF/UGXEmgg4KTkSAbCoZChS/IBGgJnzyEjS190Qjy5IrbzB1hmGozJpfNZ9+qlsbnSoo1EabTz1ZdYHFA5dfB7MJFOUjEXRj0IkIfII/f+PgQwTleHYlgnI8U/zCE0HpmizLspffCOYvtnTGrBn5Oj/UfnNTEe6eIiIU4e7atTfq/nR1HDzAjlzCnn2BslGAvPOq/AYjVyIooeBJBBkKHkSQK+RBBNlI8+fd4Wx9C4PTSGMLV3d2fDtFROjs+IYtXO1Un9n5ZbZmHfthO0X5fIwAV3VhwbIHEeQLsz8RBCj4EUEYzxS/CDECugZvH5I/PVgFCMTR1fjrQ1NEhMYDDxDrMMu/xuYvDv7wJ4ryZSIIKw78iMBnFVM2UIAXTPfeDc3fbGAZKeVNBB4KFL8oiYCtCj/4MFyzbpaLjN58Nryy8/1XfYdC5/utbHgVvRqz/JvshHXpps+FvGb5RyUReCh4EwHGIKx9KBUj4PU5iqIyREAolCFCz8iuXeEtd1QBgtMAq11zfbH3xz5Codj7Y+3q3zjVYZZ/mR25OLn1jx3NQmlEg44ICIUyRMBrah+IAOO5o98xCptkXs4Bu7Pjl3UFXYzAxsbYS68GK06Z5fJybT5bsDR96KFibGdfoFAEu9KHH6m2unbthXD16fnb6w3brskzixinQwHeS6AbNXgcN00TTkcjlKsydXd25d/gD1r/mIGCaAdTErGRUOjsHa1d99tqCYOrFoO5w+HSE5t/e7wIdpWEQg8Hf3s8XFrtZDns3AtDI+zKG8LvvkedywVrCJBlmXyWcMQaAuR5rsv9Q1PU1dC4BhvPFApWItRqNasRNRE6nezVN9mCZc49MeufQfY8NjTCFh2fPvxImUihGNuZPvQwW3R8MOQ+HqpemDvMFixjz/67F+pqPlYiNBoN6/CxEgHSnDVVGD9MJYI5Q5ny0BVuK8zvfVASoYiT6LTzKhyU8sDQSHLFtb3nkfX9bsFCfX9nx7fJFddWAVop/88dZiefHe7YqRuNFCLA00TDRZ5CBOtAdiCCuUKUGAHcYVhAoSBCUTQe/VvJzqhOBw+w4ZWN++5vf/FJZ9d3RbS729DQobG/CHd3dn3X/uKTxn1/qZ4s9Es/7MFHwyBQQoFIBPN4JhJBmfuHtXIjggEKdCLAbKWc5qx8p1P72+/ZSLUnSv9i9aGRcMkJyZXXpo88kr347/ztN/L177QO/svXv5O//Ub24r/Thx9Jrrg2XHxCFRr0Cwc9O8Oros+/VCqfTgTDeKYTwTCQnYmgG89ORNAZEWKEIk2Tq27qZ5dU97S8B45czBafEK48JVx18N/KU9jiE4IjqyTx/iGYd/jcYfbr30R7R2UoOBFBN3yciABG5FwkHyIoK+RKBKURgQjZK2+w46pkmKlSZ4XaQ+CBY1cEz72AuX8Yq7sSQTmeXYmgDDc8iSCPZw8iyEZ4InRG98UXXF5FrYdAtZMva1UF+umBoZHgnIvZf78VoOBBBMw7Qqx4EAGM8DGLPxGE8exHBKFVSISi3Wn+7anwuJX97IxK6JUHBsEDxywP/vq/wf6xMAwxaPcjgjB8/IgARvDRZiki8FDwJgLfqnEiFEXr62+is39V4aDywOHpgbN+yT7+lAUBQsGbCPzw8SYCD4WyREAolCECtgqIUNTqjQcfY9V7WQbhglbVYSo8MH8x+9MD7OfdqPwyREAjZYgAtx5JkvSIgPchuoJ1pRMlQ9mKjDRNgyDogfODjcGqUw/Pi8NUyKuyOQM9EB5/RuvzLd2igAXIuqGHx63IyPMcv6wrWJHRarUYY3O064sOGrYSwbpUg5LUCK4Z27s3uPqmakKxAuJh7oGhkdpNt3dbLVi502w2D4429f+tROh2u3me966p+o+VCN1ut91u9/ZHMOQRMsYoRKgd+Ogrw6wxQrfbrdfr8bvrWfU8fAZe9A7zATwFPcKOXJxv/ASIYF22QCGCddkChQiTdmfXjWciEcwplhQi1MbGgjVnVtqqPDBLPBCtObNImtgDbQAAGhVJREFUUwyxccJfHolEIsAYlE+HI25EMIxnOhEMRuxE6HTiv1ZvYajykWaXB9L//Xu308GZON3bFuhEUOYdeRJBl+3sRASAAp/zALWxEqG97RtWTShOQXQ6S663M7SZ4erT29u+QSLoho8TEXRQcI4RYOjKC5ZdiaCskJkIRb1Ru/WP1QzCDJV1VW1/Dxy5uH7b3fV9+2H0wX/lSMGVCMox6EkEOVLwIIJcITMR8nfWR6ur9wjOroDZfxQdXpFUuOq02mtv8USQx6AHEeQx6E8EwZYfEQQjBiIU+/ZXm6ZVw2P2emBoJLr2FvbdDzIU6GnO+N5Hg5FSROAp5U0EzGg05SN0Or01jtWG34fXdW/2Dm+/fjx2JXtGse1afODDGPOLEYAOuKqqLBEQCmWIgFDQxQidn3cnF15RCajywGz3wHmXsq+2CVd4GD5xHJchAo7BPhABoNCX3dnVWCmK9O//rN7CMNsHg9919fA6i81fzB59nKmSDqMoah3MbhS2Ked/tO7OjmuL+bOEci9DqdVqdYyfRqMBgYfhv3meG2100jRVnP7fb4LlJ1fjofJA5YFg7nC0+rTWjp3KcZTnuWL4TD6UpqnyXDzYarXCMJx8kvgTde2jIZsK4hzdTQESSJHmHATBVdUrhqvnC5UHJjxQu+63sPwJBw4UrGnOlNc6pmlqftMSY4xKBEickG9y8AiFCIyxSRV6/a1g3kh1cag8UHlgwgPzRvIPxxc78FCAFKZJwwfH3sGCdZoAbivMV3cHIpihQCTChJEdO8fO/OWEIw6ve8KqXZUHvD0Q/+LiIo55HODCh4nhc5AC/P+JRDAbcSMCTDTylcAynQi9CoUhe/Tx4JgV3l6rTuyDB+YtZCOrw1WnRGvXRSefFa1dF646hY2sCuYt7IPxCvG+HmDHrUz/8UwxeSpRSHNWvseFTgR8jIjjFwvORNDZciIC++QzduYvq00QDs3Am7cwXHFS8utrGn++r/nM0/mbr7Y2vNv6aH1rw7v5m682//l048/3JpdfHa44qULDoemgoZH47Iva33zHhwk8EXRj0IkIOiM+RFDaciDCz7uDu+8PFiw9NO72JffhUdtw+UmNe+7N33u7s31bN9mrfuNbsrez/ev8vbcb9/w5XLb28Gj4DGvFgmXpg48V9QZCQSCCcgy6EgGMCIsSPYkAOQ986OJAhPUbgxPOmGE9dBhwZGikdt1N7a2f9V4J2xhTsyDljjfGirGd7S2batfeWEVz0y/X8MQzW5u/NBBBHs8eRJCN+BNBoBSVCDt3BbfcPv3+neV/kR2zvPnUk936PjsIeChAub6v+dSTrJr0mfarQuOOe4ukBlCQYwS484d0Aij7EUGAQiki8FAgEiF4693gmOWzfHxOa/OHRsJVp2QvPN+NNfcIMgLkI8ne7D8vhKtPrYKF6ew7duyK/ONNZiJghjIxHwFnEIVCFEWwqqosERAKFCKEu/ewcy+dTp9WfytccXLzX88WZXBwABBFvLf53DPhiirBdCKbaBrUFV90Jcwm6GIEjBTiOPaOEcAIvDyiRwQxj1H62ZrmXK/XpZPEA3mep0/9q5q+ngYZ4Z9gC5amjzxahD/73CxIkULBfk4ffphVU8LTefswNMIefzKKomazicnIykKe59YMZWKac392Zx9/24IQi3A/Nr/fHi47CcVaFabBA8mlVxV7f+wLDsBIsXd7cnG1UHVaw4Rg6Vr25VbK2kfrKxusQUS32221WuO7s3ODVyyqly3iNOiBgmLZAm9mbCy+5Q42VOUsT5+Y2FGL29s+7yMOwFT7q83V5nfTQHP+T7Drf9+s1ycPOMVPg7g7uzbv+rW32NLqyfb04SCYO1y/9Q99xwEYrP/2Nl6vVXnKPbB0beO9DxQMmHzIumyBEiNMvK/BkO1MjBEgJlCso9j+Y3DF9dUMwpTrhru/ZQuWtr/ePEVE6IUJ1WwC5+2p7lk2b2F01Y0FCycTQPwJ90dQjMEDg9OZCAAFPu8IBrkTEQQjwb597KnngsVrptprlX3eA/FFlxfBrikiQhHsii+onhlNa8QXLDmx+eKr+FY4EQYHfkYi6K7uPkQQxrMfESYZ2fp1cOEV1XNsfrhOQzl95BFtkrL0EMEZHMne9KGHpqEV1Z/gPRBffHVnxy4lC+AgTwQlFDyJgCkGgAP6ex/x+1DohS6jo8Gjfxs7qlrCML3Xk6GR/O3Xu439zkOdCIvG/vzt1yvK88N1GspswbL0qee6ea6DgkAEgAK/bMGfCJMu8uQ3wQpE6JHl2++C46u3MEwvDuYOs4WrW599OFU4OECN1qYP2cjqaRgG1Z/gPRCesK6zew+dCAIUShEhDEN8YbTrPMI4GoIguPWPfHuq8vR4IFx9avvLT6eUCO0vPg1XnjI9zan+Cu+B+j33K7dd072vgQ/5SxGBMYZQ8CNC8OEnY0cu4RtTlafHA+GaM9pbP5taImzZFK6pFrBOd/QXzB1mC5a2vtqmDBPkuwYM2+G9D2WJgFDw2J09+GkHO/eS6RkA1V8RPBCumvoY4ctPw1VVjHAIiBDMHU4uurKIExkKBiJApEBJfOzlI+R53tJ/2u025EIlxk+WZbyNxpPPVZltwkCdth/Z8KrWpqmfRzhu5bS1qPpDkzwwf3H0xNPycEzTlB+DcrndbsdxLJ/IH0nTdI71pgCsYASiLPBrH9s//BhXm6ZNYwbLJLnMHQ7mjeRvvTa1zxrefK161iC6fdp6fGiEnXF++MUWYSRabwqsac5Tsjt70Wo37n0oOKqaQTg0ISXINH3ooSnMR4j3pg8+eMjGw7QNvEH+Q0ctYXfdx/ZPesc8hQjiGxIEqDi9r0GZ84AGx2OEosg/3Ryd8otKLofWA8mFl01hzuLYrviCapLoUBK/p66Tzw7e+4B/KxyRCGYoOO+YokuZBiJ0orh+x71VPHlocdCbkT5qaXvLVD1uaH25iVVZZ4c6gmDzFrLf38V27MCrMp0IBig4E0EXKfSI0Olk729k1SYIh1orwKP6LbdOyVRCY3/t5t8dcuRVFeh5YNlJ7LU3g7ExgIITEXRQ8CECPMlAMkEhz/MiqSW//k3VVQPiAXbsitYnG/qeldD66AN2bLVT5qG+ZcCrziVXs527/IigvLp7EkGGQp7nzRdeqYLJAcEBVCO+4JJi/44+QqHYtyM+7+KBauMsrww7ail75nlvIgAU+OXO/kTAjEaoTRawatO0gVPnkUsaf7rPc1N2edVTfV/jnj8HRy4euGbiBXN2FpauZT//XGYv5jiOEQr+RMCMxjAMg/37kzvurYQygB4Il6xpPvPPUluzAxriPc1/Ph0uqfa5GJj7BR5/f7iHjY25ziPAtRz+G8cxrJIsRYQJKKzfyIarlXADqZW5w+Hxp2XPPVvmYWQR7MqeezY8/rQBRF5VpZ4HhleFGz4qQwR870OPCHwOo7JsTnNuxUl07S3VpmmDLM1w5Snpw490dv/gMafQ+fn79KGHw5XVmxoGlPg94c1bGF//+3jvqHL84kFrmnOe51EUld2dPV+/MVxVXT0GWC4Hwkt27Irk19fkb73ejfdQuRDvyd98Lbn8murhwiDjHuoWrj6t8d4G/kZALluDiG63m+d5qd3Zi6RW+/1dwRGLBt9lVQ2DoZFw+Um1q36Tv/2G+SaiCHblb79eu+q63ruhqz31+Tv2gS0fsSj63Z3J6KgMAjxCIcLEXsy6ZETzrmqtzV9Ep55TDbaZ5IGhkeCIheHqU2u/vy17+cX215uLfT8V4e5i30/trzdn/3mx9rtbeyudj1hYsWAmdevc4fC0c9kHHxoGshsRlOkKQBft4shOp/nsC1UOwszSTVXbw9UDbMGy4Imng/1jOig4E0EHBR0RioDVbqpe/T7oMwiH6wCo2iV7gN1wK9v+o24g+xBBTkY03DW0v98enny2XK3qSOWBygOHxgMnn80+/xJCezlS8CSCDAVljFAURWvT50H1bp+BnWqqKjb7PDC2YBl7f+KJA26eDIzwJwJAARMb1URot5vP/+fQgHD29XTl58oDRA+wf/6LHVwNKSxbKEWEMAwx21lJhG6e1+95gFjL6muVByoPTJMH7ryXTX4GibcPpYgwkaEchmoiNLPajdU7gqtpxcoDA+aB3/yO7RWzEmDZQlkiIBSUu7MXaZpccf00Ya+6Tag8UHmA5gF2+XXh3r2YlYSFOI6pRMiyLNd/Wq1WlmU1+bN/rHojQwXEygOD5oH4oiuzKFIO6E6nkySJPJT5IyV2Z9+9pyLCoKmhqk/lgeTiq4pGQ36/C7wGrlarYdSgLDishsb5iXFDe/YEF19VdUDlgcoDA+WB5Oqbus2mjgi65CWkgwMRBFvh3tHgmpsHyhdVZSoPVB6o/e7OopkZiCAMZGQBFNyIMMnW6Ci7/Z6qAyoPVB4YKA807nu4yHMzESYN5MlIcCYC2gr27+8tq6DNf1ZfqzxQeWB6PJC99Fq307ESAQfyZCAwHyKM2woC9s771dvcpqebq79SeYDiAXbM8tbmL5U4gJlFYfyLk4Oub3njzfVsffZ5sGYdpaLVdyoPVB6YBg9Ep57T/n47nQhypOAZI4wnL/20o5pcnIZurv5E5QGiB2q/vbNgoRMRBCj4E6EHhSCInniaVRv4V5MplQcGwQNHLmn+66Vup3AlAr+ysRQRelBYvzE46X+IAKu+Vnmg8sDUeSA67dzWF1t1OFDOI/DzALCysUcEa2KjIc052z+W/PbOYH71np8BW+4yCJesqg7T6YH5i9nNtye79/ApyUI5TVNldjN/MI7jOY1Gg0eFXFavfTzIouy9D8KVp0wd+SrLlQcqD1g9EK48tfH2+/Lg5Y9QVjqN785uznY2E6GoN5Jrbq727bX2WfWFygNT5AE2b2Ht2lsaQVCr1YIg4CnAlylEmNid3QAFMxG63W7rq23BsSumqLWV2coDlQfMHmDHrWxt+SpNU8aYYSC7EUF4CMGjxUqEbrcb3v9I9aI3c7dVv608MCUemLcw/b8n+YlDHRSciaCDAoUICWPBhVeweQunpM3TOUNT/a3KAzPIA/NGksuuK/IWTwTGWL1e5y/qUPYhghIKFCL0bmA2bQ7OurAiQuWBygPT5oH43EswSRHuGhAEcqTgSQQZCkQisLGx4I13guqlbzPoClNVdSZ7ID7zgtbHm3Bdk0AEGMj8RKM/EWAjZoQNlQiMBaOj7MVXWLXYYSbrbNqub9UfKuOBaO1Z+Tvru63e/QJ8ZCIIV3d/IsCyhTiOAQp0IvS+HwTB2+8Fx59RprXVuZUHKg8YPBCecEb+0afdYlLCspIIPBRKEYGHghsRgCKbNgen/CI4comhVdWvKg9UHnD2wPzF0am/aG/79mBkMPF/HREACmEYliUCQsGHCIwFP2wPbrs7WHVq9VTSuderm47KA7IHhkbClafU77y3vX//BAa4koEIAAUqEZrGD+Q8N2yfNE1lM2kc115/K/719WxkdTUqKg9UHvD2ABs5Prz8uuSlVxss1I1F5RjkR2VRFLpz8Thpd/YoipSPN3HqkTGWa7Z2K9rtzs97mi+/EV52bXDEIm+PVCdWHpilHpi/KLnqxuSFl5PvfuBf6MiPPihbQ4A0TeVNkwQ7DquhzVDQEWE8qGm3k592sPUbw3vuHzvxzOo+YpaKW46EqyM6DwyNRMefXr/jz63PvijGgkaS8HOEwjCmE8FqxIEI5pRpCxG63fF8ibGxZP9+tn4j+8sj7MIrgmOq1RDVMurKAxMeYMetSi69Nn3sifaXW3uvXTi4/QkuUDZc5CkxArBDTl5CxLgRwQAYKhEO/OVJrdqxk331Nfv40+Ctdxvvb8g3fmz4l7zzPnvjbfgXvfUulvlC7d31Bgv5xo9r767H78dvv4dlvmA1Un/vA/y+ribJO++ba9J4f4PVSPTWu2Yj6fqNvJHwzXfwRyyEb75jNtL84EP+y0oj7I23zUayDR+hEfbG2zq3mI3kGz+mGMk2fGS2wzdB18vp+o1mI3wTdEasouVP5A1iM3vK/2JL5+fdRZxwE4WTikgEwxikE0GX5sw8dl4NgmDSeD7IFici6FqVZeo3T6BvhDsXZU2c/KILfBqa92RhTZrN5sGm9/6vhG69XsfvKwtZllmNJIlWJWCz1WrxRpIkCcOQP8IYi6JIWQE82G63+VPgVcL8EXjwhN9XFoqi4E+JD3z4I1BWnssf5E+JogjzYvjjyrcT80aiKOK/r5RKi0vv4c/FsnCWspf7ovym5i1MWBOeCLrh0y/lz7E+XJS7RPCUYWYRmyR7UzbiSgSla1z9ohzPrkRQGnElgtKIKxHAJwIUXImgNBKG2i09oZcFIsDufbJ4UBK6Aj+SgUSyVFyJoJSKKxGUHeRKBGVNXImgNNIv5fsQIQxDoZM8/CK3yoMIshEPv8g97UEE2YgHEWQjHkSQfeJBBBjP/JXWgwgQnvBGGGM6EOBxgQgABcGIBxFk0XoQQfZtX5TvQQS5Jv1Svg8RZHL7+UVolR8RBCN+fhGM+BFBGM9+RBCM+BFBaI4fEcAIhht+RJDJgiNfV5CJAGThww0PIsii9SOCQJa+KN+PCEIveyufj9+dZxb53uIXRHn7hW+VNxF4I95+4Y14E4Efz95E4I14E4E34k0E8AlAwZsI/ObffjECqI6fU/AjAkAByeJHBIEsfVG+NxF40ZZRPkKhFBF415TxC0K3DBHQNWX8gkbKEAGNlCECGilDBIRCGSJgTcoQgY8UdKEBHuevOkIZpzy9icCHG95E4MlSRvno2zJEQCP9Uv6cer2OOYzKAp8IKZfzPK/VakmSKM/Fg+YUyyzL6vV6SSPNZrPRaMRxjH9UWTDXBBpYviZZlpWvSZ7nURQpW4EHrc1ptVpWI41GQ+5Z/ki73Q5Dbf4sVoY/RS63Wq2+GIEkWvyjyoL81/kjeZ7HcVyr1ZTn4kGzb7Msg+3P8fvKgtUIpBIqz8WDZiPNZjNN0/J6A9H2iCCQWPjR+jCi0+kIT0cEC5SHEZB0LZ/IH7EGEcLeUvy5WLaitNvtCg8X8VwsWIOIbrebZRnehOOJfMEaRHS7XYACf5ZQtgYRva1xWy0MlYXT4UdrEAFGhOlkwZQ1iOh2u+12GwNU4XT8EYMFXaHdbltFaw0iOp2O1Yg1iKCI1hpEUIxYg4h+KT/LsjlxHJt72kqEbrebJInZv1a/dLtdCBNQGXKBSARzc4hEMBshEsFshEIEGMwGslCI0G63oygyGKEQoSgKfuZI7h0KEbrdLka5sgU4ogMBfzyKIjNZrEQA0ZqNWIlAMUJRfqPRMEuFSARzc4jK7xHB3EkUIkBVDFCg+AVON7iGSARzc4h+MRshEsFshEgEsxEiEZQPAnFMEonA34TjuVigE8HcIn7k68rwMNIwAIhEwKkWbAVfoBAB6mCoCUX5EGIblE8kgrk5ROWPE8HQSXQiGCpE8QsCRecaOhEMzSH6BZSh62k6EQw1oRPBYIROBH56j9c9jHPd2MPjmIAUHfgIFmCyDb9sKMCJhnDDcC7+CtMTdFKhE8EgWjoRDEYoysebbl1z6EQwSIWo/Aki6Gw5EUHnGopfkAi6mjgRQWeE6BdUvBIKTkTQ1cSJCDojTkQAKGDTsECPEeAUnPNHC65E4KfreSOUx5PdbheJoGuRExF0vnUiQhnlIxF0NXEigs4IUfmTiKBslSsRlBVyJYLSiCsRlEaIfuFlKr88y5UISse6EkHZHFciKIeQKxGU4YbTXQO4l08xQIdjIGAo8ETAp9dogTHmSgSlb12JoOxlivJ5Iihr4koEpRGi8kUiyIrxIIJcIYpf+BgBelcIojyIINeE6BdeXtDT/EbXHkSQ5eJBBLkmHkSQu9iDCGCEn630IIJydsMAAvwVTwQIN4QjHkSQpeJBBNkIRfkCEWQjHkSQjRCVryCCcI/nRwShQhS/yEQQjPgRQTBC9ItABGEo+hFBgIIfEYSa+BFB8IkfEQQjfkSQoYDD3lAQxr8MBT8iCC3yI4JghKJ8mQiCET8iCEaIylcQQbjH8yYCXyGKX5RE4I14E4E3QvSLTAR+PHsTgTfiTQTeiDcReCPeROAd600EIdwwgAB/JRNBeA7iTQT+cuhNBN4tFOUricB3kDcR+JoQla8mAg/dMkTAAJXiFx0RsFVliIBGiH5REgE7qQwR0EgZIqCRMkRAI2WIgI4tQwQeCjjsDQUlEfhww5sI/OWwDBGclK8jAvq2DBGwl4nK1xIB/VuSCADdkkQA/5YkAviX6BcdEcC/FCPChiiCQUiANYgefiVsiCIbiePYakTYEEUwkiQJxQg+fRROhx9hpxZrTSBDSWkBhxDFiI4IINowDMsQAaFQkgjQIoryDUQA0ZYkAhihXMaazeac1PhpNpvtdtv4FdIvO50O6XvGL/XFCCSNGv+O/ZeQuG3/nvEbfWlOu92GtHbjn7L8stVqZVlm+ZLt161WK89z27csv4e3AVi+ZPt1lmWtVsv2LcvvB0r5RVFYqkv4NVG0pP0RhDl/mfFWEMIlUT6RP2INAer1ujI7gDdivXoT96g2X6mazaZy/zK+JtabgizLrEasNwWwkMlwzYTLprk5kOZsXvtgvSmANGerVMw1oaQ5Ux4uhmFolYo1BIDVUHyfyuW+KN8aAljTnBlj/VI+iQh4PyN7BI5Q/BIEgbmTKETAmyJdTSh+sTbHGl/BUiiz+ilEgJrwz/CEdlGIANGpAQrWaQK4rVBmB2B9KESAeNvsFgoRrB1kvSmIosiqNysRoCFm0VKUbxUthQhWn/RL+VQimFtF9EsQBIbpQyIRzK4h+sVshEgEs0+IRIDxrIMCkQhmKBCJANGELlIgEgFvwhElQoFIBGXeEZqiEAFeS2wYz0QimHuZqHyzESIRzKLtl/L/P28iex2LmmGTAAAAAElFTkSuQmCC;" vertex="1" parent="1">
          <mxGeometry x="299.2" y="976.5" width="24.13" height="21" as="geometry" />
        </mxCell>
      </root>
    </mxGraphModel>
  </diagram>
</mxfile>
